# xmcd
#
# Track frame offsets:
#	150
#	85532
#	115775
#	139788
#	156640
#	167172
#	176961
#	185438
#
# Disc length: 2829 seconds
#
# Revision: 1
# Processed by: cddbd v1.5.1PL2 Copyright (c) Steve Scherf et al.
# Submitted via: EasyCDDAExtractor 9.0.0.1
#
DISCID=690b0b08
DTITLE=Dio - Vic's Theatre Chicago 31-05-97 Disc 2
DYEAR=1997
DGENRE=Hard Rock
TTITLE0=Mistreated - Catch The Rainbow - Guitar Solo
TTITLE1=The Last In Line
TTITLE2=Rainbow In The Dark
TTITLE3=The Mob Rules
TTITLE4=Man On The Silver Mountain
TTITLE5=Long Live Rock and Roll
TTITLE6=Man On The Silver Mountain Reprise
TTITLE7=We Rock
EXTD=
EXTT0=
EXTT1=
EXTT2=
EXTT3=
EXTT4=
EXTT5=
EXTT6=
EXTT7=
PLAYORDER=
